# xmcd
#
# Track frame offsets:
#	150
#	12259
#	24294
#	37374
#	50245
#	60662
#	77775
#	88353
#	104514
#	113135
#	122649
#	133676
#	142558
#	154740
#	167852
#	177232
#	188719
#	200382
#	211913
#	223274
#	234028
#	245295
#
# Disc length: 3439 seconds
#
# Revision: 3
# Processed by: cddbd v1.5.2PL0 Copyright (c) Steve Scherf et al.
# Submitted via: EasyCDDAExtractor 16.0.6.1
#
DISCID=350d6d16
DTITLE=Various Artist - New Orleans Soul - The Original Sound of New Orleans Soul - 1
DTITLE=966-76
DYEAR=2014
DGENRE=Soul
TTITLE0=Robert Parker - Caught You in a Lie
TTITLE1=Willie Tee - First Taste of Hurt
TTITLE2=Curley Moore - Don't Pity Me
TTITLE3=Lionel Robinson - Steppin' Out
TTITLE4=Irma Thomas - What's So Wrong with You Loving Me
TTITLE5=Aaron Neville - You Can Give But You Can't Take
TTITLE6=Maurice Williams - Being Without You
TTITLE7=Jean Knight - What One Man Won't Do Another Man Will
TTITLE8=Eldridge Holmes - Worried Over You
TTITLE9=Barbara West - Congratulations Baby
TTITLE10=Ernie K-Doe - Back Street Lover
TTITLE11=Betty Harris - I Don't Wanna Hear It
TTITLE12=Aaron Neville - She's on My Mind
TTITLE13=Irma Thomas - She'll Never Be Your Wife
TTITLE14=Eldridge Holmes - Lovely Woman
TTITLE15=Jimmy Hicks - Tell Her That I Love You
TTITLE16=Diamond Joe - The ABC Song
TTITLE17=Eldridge Holmes - Gone, Gone, Gone
TTITLE18=Francine King - Two Fools
TTITLE19=Eddie Bo - Don't Turn Me Loose
TTITLE20=Aaron Neville - A Hard Nut to Crack
TTITLE21=Inell Young - I've Never Considered
EXTD=
EXTT0=
EXTT1=
EXTT2=
EXTT3=
EXTT4=
EXTT5=
EXTT6=
EXTT7=
EXTT8=
EXTT9=
EXTT10=
EXTT11=
EXTT12=
EXTT13=
EXTT14=
EXTT15=
EXTT16=
EXTT17=
EXTT18=
EXTT19=
EXTT20=
EXTT21=
PLAYORDER=
